<svg xmlns="http://www.w3.org/2000/svg" viewBox="0 96 960 960"><path d="M186.666 936q-27.5 0-47.083-19.583T120 869.334V282.666q0-27.5 19.583-47.083T186.666 216h359.335q14.166 0 23.75 9.617 9.583 9.617 9.583 23.833 0 14.216-9.583 23.716-9.584 9.5-23.75 9.5H186.666v586.668h586.668V510.666q0-14.167 9.617-23.75t23.833-9.583q14.216 0 23.716 9.583 9.5 9.583 9.5 23.75v358.668q0 27.5-19.583 47.083T773.334 936H186.666Zm506.668-572.667H646q-14.166 0-23.75-9.617-9.583-9.617-9.583-23.833 0-14.216 9.583-23.716 9.584-9.5 23.75-9.5h47.334v-47.334q0-14.166 9.617-23.75Q712.568 216 726.784 216q14.216 0 23.716 9.583 9.5 9.584 9.5 23.75v47.334h47.334q14.166 0 23.749 9.617 9.584 9.617 9.584 23.833 0 14.216-9.584 23.716-9.583 9.5-23.749 9.5H760v47.334q0 14.166-9.617 23.749Q740.766 444 726.55 444q-14.216 0-23.716-9.584-9.5-9.583-9.5-23.749v-47.334ZM449.333 744.667l-79.333-105Q364.667 633 356.667 633t-13.334 6.667L260.667 748Q254 756.667 259 765.667q5 9 15 9h412.667q9.666 0 14.5-9Q706 756.667 700 748L587.333 597.667Q582 591 574 591t-13.333 6.667l-111.334 147ZM480 576Z"/></svg>