<svg xmlns="http://www.w3.org/2000/svg"  viewBox="0 96 960 960"><path d="M479.883 617.333q-14.216 0-23.716-9.583-9.5-9.583-9.5-23.75V246.666q0-14.166 9.617-23.749 9.617-9.584 23.833-9.584 14.216 0 23.716 9.584 9.5 9.583 9.5 23.749V584q0 14.167-9.617 23.75t-23.833 9.583Zm.117 320q-75 0-140.5-28.5t-114-77q-48.5-48.5-77-114t-28.5-140.5Q120 507 147 443t76-115q9.667-10 24.333-10.333Q262 317.333 272 327.333q9.667 9.667 8.333 23.5-1.333 13.833-11 24.167-39.667 41-61.167 92.833-21.5 51.834-21.5 109.5 0 122.572 85.381 207.953T480 870.667q122.572 0 207.953-85.381t85.381-207.953q0-57.666-21.43-110.036-21.429-52.37-60.904-93.631-9.667-10-10.5-23.666-.833-13.667 8.833-22.667 10.667-10.666 25.334-9.666 14.666 1 25 11.666Q788 380.333 814 443.979q26 63.647 26 133.354 0 75-28.5 140.5t-77 114q-48.5 48.5-114 77t-140.5 28.5Z"/></svg>